<svg width="39.000000" height="24.000000" viewBox="0 0 39 24" fill="none" xmlns="http://www.w3.org/2000/svg" xmlns:xlink="http://www.w3.org/1999/xlink">
	<desc>
			Created with Pixso.
	</desc>
	<defs/>
	<path id="Vector" d="M1.73 15.95L7.02 21.24C7.02 21.24 7.03 21.24 7.03 21.25C7.03 21.25 7.04 21.25 7.04 21.26C8.58 22.8 10.62 23.75 12.79 23.96C14.96 24.16 17.14 23.59 18.94 22.36C20.74 23.59 22.91 24.16 25.08 23.96C27.25 23.75 29.29 22.8 30.83 21.26L36.12 15.97C37.77 14.32 38.74 12.12 38.85 9.79C38.95 7.46 38.19 5.18 36.7 3.39C35.21 1.6 33.1 0.43 30.8 0.11C28.49 -0.22 26.14 0.34 24.22 1.65C22.67 0.59 20.82 0.02 18.94 0.02C17.05 0.02 15.21 0.59 13.65 1.65C11.73 0.33 9.39 -0.23 7.08 0.08C4.77 0.4 2.66 1.56 1.16 3.36C-0.33 5.15 -1.1 7.43 -1 9.76C-0.89 12.09 0.08 14.3 1.73 15.95ZM27.09 4.3C28.29 3.73 29.64 3.6 30.92 3.94C32.2 4.27 33.32 5.04 34.09 6.12C34.85 7.2 35.21 8.52 35.1 9.84C34.99 11.16 34.41 12.39 33.48 13.33L28.19 18.61C27.37 19.43 26.31 19.98 25.17 20.17C24.03 20.37 22.85 20.21 21.8 19.71L25.54 15.97C26.98 14.54 27.91 12.69 28.19 10.68C28.25 10.25 28.28 9.8 28.28 9.36C28.29 7.61 27.8 5.9 26.87 4.42C26.94 4.38 27.02 4.34 27.09 4.3L27.09 4.3ZM14.97 5.4C16.02 4.35 17.45 3.76 18.93 3.77C20.42 3.77 21.84 4.36 22.89 5.41C23.94 6.46 24.53 7.88 24.53 9.37C24.53 10.85 23.95 12.27 22.9 13.33L18.94 17.29L14.97 13.33C13.92 12.27 13.33 10.85 13.33 9.36C13.33 7.88 13.92 6.45 14.97 5.4L14.97 5.4ZM4.38 5.38C5.2 4.55 6.26 4.01 7.41 3.81C8.56 3.62 9.74 3.79 10.79 4.29C10.86 4.33 10.94 4.37 11.01 4.41C10.08 5.89 9.59 7.61 9.59 9.36C9.59 9.8 9.62 10.25 9.68 10.68C9.96 12.69 10.89 14.54 12.33 15.97L16.04 19.69L16.07 19.71C15.02 20.21 13.84 20.37 12.7 20.17C11.56 19.98 10.5 19.43 9.68 18.61C9.68 18.61 9.68 18.61 9.67 18.6C9.67 18.6 9.67 18.6 9.66 18.59L4.4 13.33L4.38 13.31C3.32 12.25 2.73 10.83 2.73 9.34C2.73 7.85 3.32 6.43 4.38 5.38L4.38 5.38Z" fill="#0077C0" fill-opacity="1.000000" fill-rule="nonzero"/>
</svg>
